<svg width="100%" height="100%" viewBox="0 0 7444 2294" xmlns="http://www.w3.org/2000/svg" xmlns:xlink="http://www.w3.org/1999/xlink">
    <path id="Path" fill="#ffe500" stroke="none" d="M 595 367 L 610.200012 394 L 640.799988 445 L 740.599976 611 L 988.200989 1023 L 1098 1206 L 1099 1206 L 1089.27002 1137 L 1082.52002 1096 L 1043.199951 1030 L 958.810974 891 L 631 344 C 647.161011 336.796997 660.713013 317.953979 670.848022 304 C 708.921997 251.57605 716.539001 179.933105 692.796021 120 C 654.015015 22.107178 536.888977 -26.713379 440 14.283936 C 412.54599 25.900879 387.898987 43.461182 368.289001 66 C 300.144012 144.322998 309.165009 268.438965 387 336.713989 C 445.852997 388.338013 524.223022 394.453003 595 367 Z"/>
    <path id="path1" fill="#ffe500" stroke="none" d="M 3260 593 C 3272.379883 589.780029 3285.23999 575.022949 3295 566.918945 C 3319.120117 546.905029 3343.530029 527.182007 3368 507.599976 C 3430.340088 457.709961 3492.25 407.187988 3554 356.575928 C 3585.649902 330.640015 3616.820068 300.36499 3651 277.901978 C 3656.330078 274.395996 3660.959961 278.420044 3666 280.687988 C 3674.72998 284.619019 3684.48999 286.921997 3694 287.829956 C 3730.540039 291.322021 3776.48999 272.910034 3790 236 L 3860 258.670044 L 4028 312.343994 L 4518 469 L 4532 428 L 4040 270.973999 L 3871 216.975098 L 3801 195 C 3801 178.846924 3797.909912 162.522949 3790.629883 148 C 3761.899902 90.683105 3686.040039 80.273438 3639 120.438965 C 3617.360107 138.925049 3604.939941 171.751953 3608.290039 200 C 3609.689941 211.851074 3612.280029 223.10498 3617.310059 234 C 3619.129883 237.955078 3623.280029 242.519043 3619.73999 246.561035 C 3611.929932 255.5 3600.23999 262.737061 3591 270.197021 C 3571.969971 285.560059 3552.919922 300.918945 3534 316.424072 C 3467.570068 370.869019 3400.090088 424.06604 3334 478.918945 C 3309.889893 498.927979 3285.449951 518.609009 3261 538.199951 C 3255.550049 542.567017 3237.73999 552.723022 3237.040039 560.004028 C 3236.679932 563.723999 3241.26001 567.436035 3243.409912 570 C 3249.469971 577.227051 3255.399902 584.740967 3260 593 Z"/>
    <path id="path2" fill="#7de634" stroke="none" d="M 6499 360 L 6498 360 C 6493.22998 350.801025 6484.259766 343.26001 6477 336 C 6457.259766 316.256958 6434.680176 299.328003 6410 286.219971 C 6325.959961 241.575928 6227.399902 245.095947 6138 270.578979 C 6112.220215 277.927002 6083.399902 285.682983 6060 299 L 6060 300 C 6087.279785 300 6114.870117 303.118042 6142 305.831055 C 6214.560059 313.085938 6305.470215 326.967041 6357.910156 383.000977 C 6371.77002 397.811035 6379.549805 413.947998 6388 432 C 6337.640137 420.352051 6292.189941 409.331055 6240 417.424072 C 6218.950195 420.688965 6198.399902 426.947998 6179 435.69397 C 6068.540039 485.489014 6027 604.778076 6027 718 L 6028 718 C 6048.220215 687.344971 6065.350098 656.863037 6091.040039 630 C 6140.439941 578.338013 6208.859863 546.961914 6280 542.088989 C 6306.339844 540.284912 6331.879883 543.937988 6358 546 C 6290.52002 610.581055 6244.109863 701.838013 6267.870117 797 C 6273.109863 817.970947 6280.859863 845.880005 6296 862 C 6305.319824 844.509033 6312.149902 825.647949 6321.259766 808 C 6341.850098 768.098999 6366.120117 729.765015 6395.839844 696 C 6406.140137 684.304932 6417.529785 670.508057 6430.009766 661.158936 C 6527.629883 588.036011 6686.100098 633.560059 6720 753 L 6722 753 C 6727.609863 739.593994 6734.359863 727.369995 6737.569824 713 C 6747.669922 667.911011 6733.529785 620.796997 6701 588 C 6719.040039 583.723999 6734.930176 577.203979 6754 578.039063 C 6831.52002 581.434082 6906.080078 643.646973 6945 707 L 6946 707 C 6946 621.906006 6889.830078 542.365967 6820 498.052979 C 6803.830078 487.790039 6786.779785 478.935059 6769 471.800049 C 6759.240234 467.883057 6748.359863 465.702026 6739 461 C 6756.240234 453.572021 6771.819824 444.196045 6790 438.719971 C 6849.310059 420.858032 6913.259766 421.004028 6974 430.424072 C 6994.22998 433.562012 7014.240234 437.799072 7034 443.151001 C 7043.910156 445.834961 7053.879883 450.484009 7064 452 C 7057.580078 440.890991 7046.310059 431.582031 7037 422.911011 C 7016.629883 403.935059 6995.410156 386.464966 6972 371.30896 C 6879.669922 311.539063 6756.779785 281.749023 6656 339.427002 C 6636.72998 350.456055 6618.75 364.381958 6603 380 C 6619.879883 314.802002 6650.049805 257.917969 6702 213.427979 C 6715.5 201.870117 6729.790039 191.388916 6745 182.204102 C 6752.97998 177.38501 6762.870117 173.908936 6770 168 C 6748.459961 160.708008 6722.339844 161.37207 6700 162.910889 C 6597.629883 169.958984 6501.220215 252.458008 6499 360 Z"/>
    <path id="path3" fill="#ffa800" stroke="none" d="M 4661 341.424072 C 4631 345.36499 4603.660156 352.859009 4579 371.375 C 4562.740234 383.581055 4549.259766 398.56897 4538.799805 416 C 4500.620117 479.645996 4514.910156 566.065918 4572 613.557007 C 4606.029785 641.870972 4652.689941 652.854004 4696 646.713989 C 4716.339844 643.831055 4735.52002 635.961914 4753 625.398926 C 4845.569824 569.447998 4849.279785 428.563965 4759 368.000977 C 4744.240234 358.102051 4728.27002 350.463989 4711 346.126953 C 4695.160156 342.147949 4677.330078 339.279053 4661 341.424072 M 2588 395.620972 C 2575.530029 396.702026 2563.040039 400.360962 2552 406.30896 C 2477.370117 446.501953 2485.199951 557.145996 2563 588.341064 C 2574.689941 593.026978 2588.219971 596.718018 2601 595.815918 C 2618.969971 594.546021 2636.47998 590.702026 2652 581.188965 C 2708.23999 546.718018 2715.929932 464.209961 2667 420.171021 C 2645.189941 400.545044 2616.76001 393.130005 2588 395.620972 Z"/>
    <path id="path4" fill="#a452ff" stroke="none" d="M 5513 494 L 5513 645 L 5486 645 L 5486 891 L 5434 891 L 5434 1804 L 5853 1808 L 5853 891 L 5798 891 L 5798 644 L 5766 644 L 5766 494 L 5513 494 Z"/>
    <path id="path5" fill="#ffe500" stroke="none" d="M 2694 532 L 2670 568 L 2854 688.666992 L 2908.959961 725.025024 L 2947 750 C 2940.939941 773.439941 2946.98999 799.411987 2964.290039 816.713989 C 2992.860107 845.291992 3043.620117 841.715088 3067.51001 809 C 3076.02002 797.345947 3080.919922 782.477051 3080.919922 768 C 3080.919922 762.138916 3075.219971 748.559082 3077.97998 743.745972 C 3082.959961 735.039063 3104.919922 728.869995 3105.149902 717.999023 C 3105.330078 709.836914 3090.909912 687.531006 3083 685.495972 C 3079.320068 684.550049 3075.560059 688.945068 3073 690.999023 C 3067.22998 695.630005 3056.540039 708.348022 3049 708.913086 C 3043.399902 709.333008 3035.649902 703.567017 3030 702.236084 C 3011.830078 697.956055 2983.929932 699.390991 2971 715 C 2950.540039 699.275024 2927.580078 686.74292 2906 672.656006 C 2867.860107 647.755981 2830.290039 621.971924 2792 597.307983 C 2759.699951 576.50293 2728.780029 548.450928 2694 532 Z"/>
    <path id="path6" fill="#ffe500" stroke="none" d="M 2530 569 L 2491.199951 635 L 2472.810059 668 L 2475.080078 688 L 2482 734 C 2492.76001 727.421997 2500.199951 705.813965 2506.600098 695 C 2526.75 660.994995 2550.27002 626.788086 2567 591 L 2530 569 Z"/>
    <path id="path7" fill="#169fff" stroke="none" d="M 2737 613 C 2725.02002 641.776001 2713.370117 669.25293 2707 700 C 2690.100098 781.61792 2697 868.078979 2697 951 L 2697 1400 C 2697 1506.619995 2692.080078 1620.530029 2758.72998 1711 C 2813.419922 1785.22998 2900.72998 1812.170044 2989 1816.040039 C 3096.310059 1820.73999 3206.389893 1787.170044 3265.189941 1691 C 3309.300049 1618.849976 3313 1534.98999 3313 1453 L 3313 1311 L 3117 1311 L 3117 1475 C 3117 1510.599976 3118.669922 1549.069946 3099.98999 1581 C 3058.689941 1651.589966 2936.590088 1638.390015 2912.719971 1560 C 2903.459961 1529.579956 2905 1498.410034 2905 1467 L 2905 1339 L 2905 900 C 2905 857.800049 2903.189941 815.155029 2905.040039 773 C 2905.48999 762.645996 2907.189941 752.11499 2909.419922 742 C 2910.27002 738.157959 2913.310059 732.060059 2912.209961 728.184082 C 2911.120117 724.312988 2905.090088 721.728027 2902 719.666992 C 2892.050049 713.031982 2881.949951 706.633057 2872 700 C 2841.050049 679.36499 2809.949951 658.968018 2779 638.333008 C 2767.26001 630.508057 2751 615.195068 2737 613 Z"/>
    <path id="path8" fill="#169fff" fill-rule="evenodd" stroke="none" d="M 3705.486328 1816.849609 C 3682.90332 1816.867798 3660.302979 1815.230225 3638 1812.130859 C 3608.709961 1808.060913 3580.169922 1800.049927 3553 1788.419922 C 3532.26001 1779.549927 3512.51001 1767.600586 3495 1753.390625 C 3368.790283 1650.980713 3390 1474.549927 3390 1330 L 3390 1188 L 3390 1013 L 3390 844 C 3390 762.661133 3392.879639 680.623901 3434.429688 608 C 3470.439697 545.059204 3531.060059 502.37854 3601 484.894531 C 3628.969971 477.901489 3656.72998 477.134766 3685 473.423828 C 3704.219971 470.900757 3724.810059 473.503174 3744 474.910156 C 3849.149902 482.619141 3943.600098 536.936157 3986.580078 636 C 4030.540039 737.349854 4017 855.255127 4017 963 L 4017 1152 L 4017 1320 L 4017 1418 C 4017 1521.559937 4018.480713 1630.850098 3949.390625 1716 C 3937.960693 1730.079956 3925.290039 1743.139893 3911 1754.339844 C 3892.040039 1769.199829 3871.209961 1781.260132 3849 1790.580078 C 3820.060059 1802.720093 3789.100098 1809.940918 3758 1813.710938 C 3740.60498 1815.819702 3723.050781 1816.835449 3705.486328 1816.849609 Z M 3703.5 1628.082031 C 3710.682373 1628.082031 3717.86499 1627.625977 3725 1626.710938 C 3734.280029 1625.531006 3743.350098 1622.900391 3752 1619.400391 C 3815.209961 1593.790405 3810 1513.849854 3810 1458 L 3810 1418 L 3810 817 C 3810 764.290039 3810.169922 697.046509 3754 671.308594 C 3744.76001 667.074463 3735.040039 664.542847 3725 663.130859 C 3713.179932 661.469849 3699.879883 660.845703 3688 662.423828 C 3675.449951 664.091797 3663.550049 666.316162 3652 671.78125 C 3592.189941 700.089233 3597 775.468018 3597 831 L 3597 871 L 3597 1470 C 3597 1522.51001 3595.889893 1594.800293 3654 1618.990234 C 3662.949951 1622.710205 3672.370117 1625.490967 3682 1626.710938 C 3689.13501 1627.625977 3696.317627 1628.082031 3703.5 1628.082031 Z M 3117 932 C 3117 874.749023 3121.960205 814.834961 3115.160156 758 C 3111.680176 728.971558 3101.693604 702.552979 3080.394531 684.160156 C 3080.61084 683.777344 3080.813721 683.390991 3081 683 C 3073.060059 678.098999 3065.810059 672.752686 3057 669.425781 C 3056.093262 669.083496 3055.168701 668.748169 3054.228516 668.423828 C 3041.546875 663.531982 3027.287354 661.242798 3012.990234 661.193359 C 2983.397949 660.213867 2952.031738 667.695068 2935.484375 688.998047 C 2934.681152 689.40625 2933.852783 689.66333 2933 689.693359 C 2924.969971 689.977417 2910.610107 676.074951 2904 671.667969 C 2878.110107 654.406982 2851.889893 637.594971 2826 620.332031 C 2810.050049 609.696045 2794.25 598.751221 2778 588.576172 C 2774.350098 586.287231 2762.329834 580.822266 2762.339844 575.90625 C 2762.349854 568.999268 2775.48999 558.515015 2780 554 C 2799.560059 534.437012 2821.25 518.619019 2846 506.246094 C 2889.25 484.619995 2935.330078 477.174194 2983 473.910156 C 3045.120117 469.655151 3110.969971 479.036011 3167 507.248047 C 3185.429932 516.528076 3202.389893 528.432129 3218 541.869141 C 3329.590088 637.947021 3313 800.118042 3313 932 L 3117 932 Z"/>
    <path id="path9" fill="#ffe500" stroke="none" d="M 2313 940 L 2254.399902 1041 L 2230 1084 L 2226 1083 C 2197.080078 1126.839966 2172.939941 1174.569946 2146.580078 1220 C 2091.100098 1315.579956 2036.569946 1411.719971 1980.579956 1507 C 1926.48999 1599.030029 1873.180054 1691.630005 1819.579956 1784 C 1793.23999 1829.380005 1762.209961 1874.48999 1740 1922 L 1779 1943 L 1819.579956 1873 L 1896.579956 1741 L 2097.850098 1388 L 2174.850098 1255 L 2210 1193 L 2211 1193 L 2211 1200 L 2212 1200 C 2238.370117 1156.920044 2263.070068 1112.689941 2288.419922 1069 C 2295.97998 1055.97998 2303.5 1042.930054 2311.199951 1030 C 2315.22998 1023.23999 2321.26001 1015.630005 2323.360107 1008 C 2327.139893 994.288086 2318.850098 973.015991 2317.159912 959 C 2316.429932 953.011963 2316.469971 945.049072 2313 940 Z"/>
    <path id="path10" fill="#a452ff" stroke="none" d="M 4973 953 C 4954.759766 996.817017 4931.419922 1039.26001 4910.740234 1082 C 4903.109863 1097.77002 4890.089844 1115.869995 4886.390137 1133 C 4883.27002 1147.430054 4886 1165.22998 4886 1180 L 4858 1180 L 4858 1230 L 4849 1230 L 4849 1804 L 5118 1802 L 5118 1228 L 5091 1228 L 5091 1177 L 5067 1177 C 5067 1163.160034 5069.529785 1146.530029 5066.609863 1133 C 5062.649902 1114.699951 5047.52002 1094.569946 5038.779785 1078 C 5017.220215 1037.140015 4992.75 995.633057 4975 953 L 4973 953 Z"/>
    <path id="path11" fill="#169fff" fill-rule="evenodd" stroke="none" d="M 0 1802 L 0 488 L 275 488 C 370.222809 488 469.967133 490.39917 545 558.169922 C 631.804871 636.57373 634 756.121216 634 864 L 634 1467 C 634 1558.90979 620.368896 1663.35022 548 1728.830078 C 468.877197 1800.420044 366.586823 1802 266 1802 L 0 1802 Z M 676 1802 L 689.585938 1715 L 714.576172 1559 L 791.576172 1078 L 825.753906 864 L 835.576172 803 L 841 776 L 940.400391 941 L 970.400391 991 L 983.191406 1014 L 982.443359 1019.888672 L 974.423828 1076 L 959.271484 1177 L 940.271484 1304 L 928 1384 L 1126 1384 L 1108.130859 1266 L 1106.876953 1258.017578 C 1106.827515 1257.678589 1106.780396 1257.338623 1106.730469 1257 C 1095.570435 1181.250244 1083.890503 1105.759766 1072.730469 1030 C 1062.560547 960.976318 1051.900513 892.023682 1041.730469 823 C 1037.160522 791.990967 1028.650024 759.330078 1028 728 L 1027 728 L 1010.730469 835 L 994 948 L 981.199219 929 L 959.599609 893 L 886.800781 772 L 861.599609 730 L 851.136719 710 L 854.753906 683 L 862.585938 634 L 886 488 L 1189 488 C 1202.170044 591.671753 1222.560181 694.721191 1238.580078 798 C 1272.510132 1016.81958 1309.489868 1235.180542 1343.419922 1454 C 1354.269897 1523.929932 1363.240479 1594.450073 1376.310547 1664 C 1384.790527 1709.139893 1395.380005 1756.160156 1399 1802 L 1242 1802 L 1204 1802 L 1190.179688 1800.400391 L 1187.419922 1787 L 1182.25 1752 L 1162.419922 1620 L 1156.269531 1579 L 1152.570313 1565.029297 L 1134 1564 L 1086 1564 L 902 1564 L 875.423828 1741 L 868.869141 1785 L 865.396484 1800.970703 L 852 1802 L 816 1802 L 676 1802 Z M 1561 1802 L 1561 677 L 1346 677 L 1346 488 L 1984 488 L 1984 677 L 1768 677 L 1768 1802 L 1561 1802 Z M 1931 1802 C 1931.609985 1772.589966 1940.44043 1742.109985 1944.730469 1713 C 1948.770508 1685.550049 1949.930176 1653.050049 1959.660156 1627 C 1969.420166 1600.839966 1989.229492 1575.901001 2003.189453 1551.710938 C 2025.329468 1513.321045 2046.659302 1474.410034 2069.779297 1436.580078 C 2118.179199 1357.360229 2161.879883 1274.989868 2209 1195 L 2210 1195 L 2208.101563 1209.501953 C 2204.980957 1221.43457 2204.185059 1235.460327 2203.042969 1248.158203 L 2199.269531 1277 L 2183 1384 L 2380 1384 C 2379.960938 1379.206421 2379.689209 1374.371704 2379.248047 1369.511719 C 2377.031738 1342.016724 2370.641602 1313.699707 2365.986328 1286.554688 C 2357.501709 1229.353394 2348.700684 1172.201782 2340.269531 1115 C 2336.639404 1090.329956 2332.82959 1065.680054 2329.269531 1041 C 2328.086182 1032.787598 2328.318359 1019.861572 2324.830078 1011.443359 C 2316.521729 955.283691 2308.131592 899.171631 2299.419922 843 C 2293.540039 805.074951 2290.97998 765.296997 2282 728 L 2281 728 L 2271.419922 795 L 2256.419922 895 L 2237.269531 1023 L 2228 1084 C 2220.280029 1086.619995 2214.039795 1104.140015 2210.009766 1111 C 2194.609863 1137.219971 2179.9104 1163.819946 2164.400391 1190 C 2123.390381 1259.189697 2083.969971 1329.390137 2043.580078 1399 C 2028.870117 1424.329956 2014.150146 1449.579956 1999.580078 1475 C 1992.400146 1487.530029 1983.719971 1499.72998 1978 1513 L 1977 1513 L 1988.580078 1439 L 2016.580078 1264 L 2099.919922 743 L 2130.25 553 L 2137.75 506 L 2141.740234 489.027344 L 2163 488 L 2220 488 L 2444 488 L 2451.580078 537 L 2467.580078 637 L 2519.580078 962 L 2603.580078 1487 L 2654 1802 L 2444 1802 C 2443.540039 1779.910034 2437.810059 1756.829956 2434.419922 1735 C 2425.669922 1678.570068 2413.5 1620.899902 2409 1564 L 2221 1564 L 2174 1564 L 2157.599609 1565.599609 L 2153.919922 1583 L 2146.871094 1630 L 2121 1802 L 1931 1802 Z M 4108 1802 L 4108 488 L 4368 488 C 4381.390137 552.878784 4402.549316 617.046265 4419.849609 681 C 4452.749512 802.627686 4485.250488 924.371216 4518.150391 1046 C 4531.770508 1096.319946 4545.628906 1146.579956 4558.878906 1197 C 4565.059082 1220.469971 4575.890137 1245.839966 4578 1270 L 4579 1270 L 4579 618 C 4620.680176 641.718994 4664.529785 658.731812 4713 643.253906 C 4731.290039 637.411865 4746.02002 627.032959 4763 619 L 4763 1802 L 4550 1802 C 4545.959961 1774.569946 4535.400391 1746.780029 4528.150391 1720 C 4513.890625 1667.340088 4500.029785 1614.559937 4485.419922 1562 C 4441.160156 1402.710327 4398.161133 1242.889771 4356.121094 1083 C 4342.951172 1032.930054 4329.439941 982.88208 4315.580078 933 C 4308.950195 909.14502 4298.009766 882.671021 4296 858 L 4295 858 L 4295 1802 L 4108 1802 Z M 207 1613 L 302 1613 C 339.506927 1613 377.905151 1612.319824 403.330078 1580 C 425.142029 1552.27002 427 1513.709839 427 1480 L 427 1384 L 427 904 L 427 815 C 427 776.265991 425.483795 733.301025 397.714844 703.039063 C 375.587921 678.927002 342.376953 677 312 677 L 207 677 L 207 1613 Z"/>
    <path id="path12" fill="#ffa800" fill-rule="evenodd" stroke="none" d="M 1669.65625 2294.001953 C 1620.496338 2293.851807 1574.164185 2281.470947 1536 2248.710938 C 1520.869995 2235.730957 1507.960327 2220.889893 1497.320313 2204 C 1493.570313 2198.040039 1489.939941 2185.760498 1482 2185.060547 C 1464.290039 2183.500488 1445.780029 2185 1428 2185 L 1320 2185 L 992 2185 L 0 2185 L 0 2018 C 451.563538 2018 903.34845 2017 1355 2017 L 1446 2017 C 1456.829956 2017 1474.870361 2020.500366 1484.900391 2016.400391 C 1492.070313 2013.460327 1498.549316 1995.47998 1503.029297 1989 C 1514.999268 1971.660034 1530.439941 1956.479492 1547 1943.519531 C 1595.209961 1905.759521 1665.97998 1898.889282 1723 1917.029297 C 1743.22998 1923.469238 1759.180054 1935.099976 1778 1944 L 1788 1953.919922 L 1806.419922 1972 L 1828.199219 2002 L 1837.210938 2015.400391 L 1857 2016 L 1901 2016 L 2057 2016 L 2905 2016 L 5885 2014 L 6530 2014 L 6701 2013 L 6747 2013 L 6764.679688 2011.970703 L 6768.800781 1999 L 6776.400391 1961 L 6796.400391 1860 L 6807 1804 L 6424 1804 L 6424 943 L 6424 732 L 6424 681 C 6424 674.827026 6422.609375 666.466553 6428.099609 662.1875 C 6467.419434 631.547485 6526.009766 621.01416 6574.419922 629.154297 C 6585.799805 631.068237 6596.460938 633.618164 6607.460938 637.111328 C 6610.661133 638.125244 6616.810547 638.969727 6618.400391 642.302734 C 6621.200684 648.190674 6619 659.531006 6619 666 L 6619 722 L 6619 923 L 6619 1636 L 6835 1636 L 6868.919922 1431 L 6932.410156 1049 L 6959.080078 889 L 6972 809 L 7175 809 L 7228 809 L 7247.400391 810.027344 L 7252 831 L 7261.080078 887 L 7297.269531 1111 L 7397.080078 1728 L 7430.269531 1933 L 7444 2021 L 7300 2021 L 7265 2021 C 7261.609863 2021 7254.459961 2022.340332 7252.009766 2019.400391 C 7249.689941 2016.610352 7249.819824 2010.459961 7249.25 2007 L 7243.919922 1975 C 7237.509766 1936.329956 7231.069824 1897.660034 7224.589844 1859 L 7218.410156 1822 C 7217.799805 1818.329956 7217.960449 1811.359253 7214.570313 1809.029297 C 7208.930664 1805.159302 7193.72998 1808 7187 1808 L 7113 1808 L 7019 1808 C 7010.629883 1808 6990.369629 1804.259277 6983.429688 1809.029297 C 6978.489746 1812.419312 6978.898926 1827.459961 6978.128906 1833 C 6974.918945 1856.030029 6971.081055 1878.969971 6967.871094 1902 C 6962.331055 1941.719971 6952.839844 1982.01001 6950.089844 2022 C 6946.390137 2075.77002 6950 2131.080078 6950 2185 L 3541 2185 L 2408 2185 L 2031 2185 C 1968.200073 2185 1904.729858 2182.289551 1842 2185.019531 C 1834.069946 2185.359619 1831.579956 2194.040039 1828 2200 C 1819.670044 2213.850098 1809.710205 2227.710205 1797.990234 2238.910156 C 1764.910278 2270.500244 1718.569946 2293.77002 1672 2294 C 1671.218262 2294.003662 1670.436523 2294.004395 1669.65625 2294.001953 Z M 7009 1640 L 7191 1640 C 7190.870117 1624.459961 7186.810059 1608.349976 7184.419922 1593 C 7179.930176 1564.02002 7175.549316 1535.01001 7171.269531 1506 C 7157.659668 1413.620117 7143.740234 1321.269897 7129.419922 1229 C 7122.549805 1184.699951 7115.80957 1140.349976 7109.269531 1096 C 7106.409668 1076.609985 7107 1049.819946 7099 1032 L 7078.730469 1168 L 7040.730469 1423 L 7019.730469 1564 L 7009 1640 Z"/>
    <path id="path13" fill="#a452ff" stroke="none" d="M 5943 1197 L 5943 1212 L 5911 1212 L 5911 1808 L 6034 1808 L 6034 1213 L 5999 1213 L 5999 1197 L 5943 1197 Z"/>
    <path id="path14" fill="#a452ff" stroke="none" d="M 5184 1338 L 5184 1804 L 5373 1804 L 5373 1338 L 5184 1338 M 6099 1338 L 6099 1808 L 6340 1804 L 6340 1338 L 6099 1338 Z"/>
    <path id="path15" fill="#ffe500" stroke="none" d="M 1360 1558 C 1361.01001 1581.48999 1367.079956 1605.800049 1370.920044 1629 C 1373.119995 1642.310059 1373.22998 1658.439941 1378.209961 1671 C 1387.569946 1694.579956 1405.540039 1717.22998 1418.599976 1739 C 1443.189941 1779.98999 1467.25 1821.369995 1492.420044 1862 C 1509.089966 1888.900024 1528.599976 1916.339966 1542 1945 C 1551.869995 1940.849976 1560.359985 1933.119995 1570 1928.25 C 1572.900024 1926.780029 1578.310059 1925.02002 1577.97998 1920.959961 C 1577.280029 1912.160034 1565.930054 1899.540039 1561.400024 1892 C 1547.380005 1868.640015 1533.219971 1845.359985 1519.199951 1822 C 1483.780029 1762.969971 1448.219971 1704.030029 1412.800049 1645 L 1378.599976 1588 C 1372.719971 1578.199951 1367.5 1566.630005 1360 1558 Z"/>
</svg>